name rise44.9368peak50.754fall52.0217.mot
datacolumns 19
datarows 29
range 8.38164200000000 8.42830100000000
endheader
time	ground_force1_vx	ground_force1_vy	ground_force1_vz	ground_force1_px	ground_force1_py	ground_force1_pz	ground_force2_vx	ground_force2_vy	ground_force2_vz	ground_force2_px	ground_force2_py	ground_force2_pz	ground_torque1_x	ground_torque1_y	ground_torque1_z	ground_torque2_x	ground_torque2_y	ground_torque2_z	
8.38164200000000	-47.65859400000000	779.85415399999999	64.10280400000001	0.19435000000000	0.00000000000000	0.11611000000000	-3.63852400000000	15.75836200000000	1.14283800000000	0.00000000000000	0.00000000000000	0.00000000000000	0.00000000000000	35.21450700000000	0.00000000000000	0.00000000000000	0.21474800000000	0.00000000000000	
8.38331400000000	-47.79504500000000	777.68764299999998	63.88819300000000	0.19378600000000	0.00000000000000	0.11600900000000	-4.50095000000000	21.25904600000000	1.42540700000000	0.00000000000000	0.00000000000000	0.00000000000000	0.00000000000000	35.06241500000000	0.00000000000000	0.00000000000000	0.27709400000000	0.00000000000000	
8.38496800000000	-47.94858000000000	775.42916500000001	63.65664500000000	0.19320500000000	0.00000000000000	0.11590600000000	-5.34324700000000	27.31608800000000	1.70558200000000	0.39738100000000	0.00000000000000	-0.09837100000000	0.00000000000000	34.90765600000000	0.00000000000000	0.00000000000000	0.49444400000000	0.00000000000000	
8.38663600000000	-48.11981100000000	773.07812300000001	63.40781200000000	0.19260700000000	0.00000000000000	0.11580100000000	-6.12636100000000	33.81962900000000	1.97131100000000	0.40318800000000	0.00000000000000	-0.09906900000000	0.00000000000000	34.75031000000000	0.00000000000000	0.00000000000000	0.59624000000000	0.00000000000000	
8.38830600000000	-48.30929000000000	770.63387499999999	63.14136100000000	0.19199200000000	0.00000000000000	0.11569500000000	-6.81299900000000	40.65079900000000	2.21094700000000	0.40815000000000	0.00000000000000	-0.09970100000000	0.00000000000000	34.59045300000000	0.00000000000000	0.00000000000000	0.69643400000000	0.00000000000000	
8.38997600000000	-48.51750200000000	768.09573399999999	62.85697200000000	0.19135800000000	0.00000000000000	0.11558700000000	-7.37027100000000	47.69174200000000	2.41407300000000	0.41243200000000	0.00000000000000	-0.10027700000000	0.00000000000000	34.42815900000000	0.00000000000000	0.00000000000000	0.79179400000000	0.00000000000000	
8.39164200000000	-48.74486600000000	765.46296400000006	62.55434200000000	0.19070600000000	0.00000000000000	0.11547800000000	-7.77178300000000	54.83469100000000	2.57215700000000	0.41615800000000	0.00000000000000	-0.10080400000000	0.00000000000000	34.26349700000000	0.00000000000000	0.00000000000000	0.87950600000000	0.00000000000000	
8.39330100000000	-48.99172600000000	762.73478200000000	62.23318500000000	0.19003700000000	0.00000000000000	0.11536600000000	-7.99896400000000	61.98910400000000	2.67899100000000	0.41942900000000	0.00000000000000	-0.10129000000000	0.00000000000000	34.09653400000000	0.00000000000000	0.00000000000000	0.95732400000000	0.00000000000000	
8.39497400000000	-49.25835300000000	759.91035299999999	61.89323300000000	0.18934900000000	0.00000000000000	0.11525300000000	-8.04158900000000	69.08635800000000	2.73086700000000	0.42232200000000	0.00000000000000	-0.10174000000000	0.00000000000000	33.92732900000000	0.00000000000000	0.00000000000000	1.02364700000000	0.00000000000000	
8.39664600000000	-49.54493900000000	756.98879499999998	61.53423900000000	0.18864400000000	0.00000000000000	0.11513800000000	-7.89754300000000	76.08189700000000	2.72653700000000	0.42490200000000	0.00000000000000	-0.10215700000000	0.00000000000000	33.75594100000000	0.00000000000000	0.00000000000000	1.07754000000000	0.00000000000000	
8.39830800000000	-49.85159500000000	753.96917299999996	61.15597900000000	0.18792100000000	0.00000000000000	0.11502100000000	-7.57195500000000	82.95503700000000	2.66696400000000	0.42721900000000	0.00000000000000	-0.10254700000000	0.00000000000000	33.58242100000000	0.00000000000000	0.00000000000000	1.11868500000000	0.00000000000000	
8.39997400000000	-50.17834900000000	750.85050200000001	60.75824900000000	0.18718200000000	0.00000000000000	0.11490200000000	-7.07589400000000	89.70682900000000	2.55494400000000	0.42931500000000	0.00000000000000	-0.10291100000000	0.00000000000000	33.40681300000000	0.00000000000000	0.00000000000000	1.14730100000000	0.00000000000000	
8.40163700000000	-50.52514400000000	747.63175000000001	60.34087100000000	0.18642500000000	0.00000000000000	0.11478100000000	-6.42479000000000	96.35650200000001	2.39463700000000	0.43122600000000	0.00000000000000	-0.10325200000000	0.00000000000000	33.22915800000000	0.00000000000000	0.00000000000000	1.16402200000000	0.00000000000000	
8.40330500000000	-50.89183100000000	744.31183999999996	59.90369200000000	0.18565300000000	0.00000000000000	0.11465700000000	-5.63677000000000	102.93701400000000	2.19106300000000	0.43297900000000	0.00000000000000	-0.10357200000000	0.00000000000000	33.04948700000000	0.00000000000000	0.00000000000000	1.16977400000000	0.00000000000000	
8.40497600000000	-51.27817400000000	740.88964599999997	59.44658600000000	0.18486400000000	0.00000000000000	0.11453100000000	-4.73106500000000	109.49024700000000	1.94961700000000	0.43459800000000	0.00000000000000	-0.10387400000000	0.00000000000000	32.86782600000000	0.00000000000000	0.00000000000000	1.16563600000000	0.00000000000000	
8.40663900000000	-51.68384300000000	737.36400500000002	58.96945400000000	0.18406100000000	0.00000000000000	0.11440200000000	-3.72658500000000	116.06229700000000	1.67563700000000	0.43610500000000	0.00000000000000	-0.10415800000000	0.00000000000000	32.68419300000000	0.00000000000000	0.00000000000000	1.15272700000000	0.00000000000000	
8.40830200000000	-52.10841500000000	733.73371299999997	58.47222900000000	0.18324400000000	0.00000000000000	0.11427100000000	-2.64077700000000	122.69921500000000	1.37404600000000	0.43751500000000	0.00000000000000	-0.10442600000000	0.00000000000000	32.49859700000000	0.00000000000000	0.00000000000000	1.13209500000000	0.00000000000000	
8.40996900000000	-52.55136900000000	729.99753199999998	57.95487000000000	0.18241400000000	0.00000000000000	0.11413600000000	-1.48877600000000	129.44345000000001	1.04908800000000	0.43884300000000	0.00000000000000	-0.10467900000000	0.00000000000000	32.31103700000000	0.00000000000000	0.00000000000000	1.10464100000000	0.00000000000000	
8.41163800000000	-53.01209100000000	726.15419599999996	57.41737000000000	0.18157100000000	0.00000000000000	0.11400000000000	-0.28288600000000	136.33116600000000	0.70416000000000	0.44010100000000	0.00000000000000	-0.10491900000000	0.00000000000000	32.12150400000000	0.00000000000000	0.00000000000000	1.07106100000000	0.00000000000000	
8.41330200000000	-53.48986600000000	722.20240899999999	56.85975300000000	0.18071700000000	0.00000000000000	0.11386000000000	0.96763600000000	143.39045700000000	0.34173800000000	0.44129900000000	0.00000000000000	-0.10514600000000	0.00000000000000	31.92998000000000	0.00000000000000	0.00000000000000	1.03181400000000	0.00000000000000	
8.41497300000000	-53.98388400000000	718.14085999999998	56.28207700000000	0.17985200000000	0.00000000000000	0.11371700000000	2.25653300000000	150.64045999999999	-0.03661600000000	0.44244700000000	0.00000000000000	-0.10536000000000	0.00000000000000	31.73643400000000	0.00000000000000	0.00000000000000	0.98711500000000	0.00000000000000	
8.41665000000000	-54.49323400000000	713.96821999999997	55.68443200000000	0.17897900000000	0.00000000000000	0.11357100000000	3.58028300000000	158.09124499999999	-0.43018200000000	0.44355200000000	0.00000000000000	-0.10556400000000	0.00000000000000	31.54082700000000	0.00000000000000	0.00000000000000	0.93694300000000	0.00000000000000	
8.41830100000000	-55.01691000000000	709.68315299999995	55.06694500000000	0.17809700000000	0.00000000000000	0.11342200000000	4.93767800000000	165.74437000000000	-0.83895800000000	0.44461900000000	0.00000000000000	-0.10575700000000	0.00000000000000	31.34310700000000	0.00000000000000	0.00000000000000	0.88106800000000	0.00000000000000	
8.41997100000000	-55.55380600000000	705.28431899999998	54.42977600000000	0.17720900000000	0.00000000000000	0.11327000000000	6.32930800000000	173.59392399999999	-1.26350500000000	0.44565500000000	0.00000000000000	-0.10594000000000	0.00000000000000	31.14321300000000	0.00000000000000	0.00000000000000	0.81908500000000	0.00000000000000	
8.42163800000000	-56.10272100000000	700.77038400000004	53.77312200000000	0.17631500000000	0.00000000000000	0.11311400000000	7.75700600000000	181.62789799999999	-1.70478300000000	0.44666500000000	0.00000000000000	-0.10611400000000	0.00000000000000	30.94106900000000	0.00000000000000	0.00000000000000	0.75045600000000	0.00000000000000	
8.42330800000000	-56.66235800000000	696.14002500000004	53.09721600000000	0.17541700000000	0.00000000000000	0.11295500000000	9.22330100000000	189.82971000000001	-2.16398300000000	0.44765100000000	0.00000000000000	-0.10627900000000	0.00000000000000	30.73659000000000	0.00000000000000	0.00000000000000	0.67455300000000	0.00000000000000	
8.42497000000000	-57.23132500000000	691.39193699999998	52.40232500000000	0.17451600000000	0.00000000000000	0.11279200000000	10.73091700000000	198.17975999999999	-2.64237400000000	0.44861800000000	0.00000000000000	-0.10643500000000	0.00000000000000	30.52968000000000	0.00000000000000	0.00000000000000	0.59069700000000	0.00000000000000	
8.42663900000000	-57.80814300000000	686.52484400000003	51.68875800000000	0.17361400000000	0.00000000000000	0.11262600000000	12.28234900000000	206.65688100000000	-3.14116900000000	0.44956800000000	0.00000000000000	-0.10658400000000	0.00000000000000	30.32022700000000	0.00000000000000	0.00000000000000	0.49820100000000	0.00000000000000	
8.42830100000000	-58.39124000000000	681.53750500000001	50.95685500000000	0.17271300000000	0.00000000000000	0.11245600000000	13.87953600000000	215.23960800000000	-3.66142800000000	0.45050400000000	0.00000000000000	-0.10672500000000	0.00000000000000	30.10811200000000	0.00000000000000	0.00000000000000	0.39639200000000	0.00000000000000	
